<?xml version="1.0" standalone="no"?>
<!DOCTYPE svg PUBLIC "-//W3C//DTD SVG 20010904//EN"
 "http://www.w3.org/TR/2001/REC-SVG-20010904/DTD/svg10.dtd">
<svg version="1.0" xmlns="http://www.w3.org/2000/svg"
 width="128.000000pt" height="128.000000pt" viewBox="0 0 128.000000 128.000000"
 preserveAspectRatio="xMidYMid meet">

<g transform="translate(0.000000,128.000000) scale(0.100000,-0.100000)"
fill="#000000" stroke="none">
<path d="M0 888 l0 -393 390 390 c214 214 390 391 390 392 0 2 -175 3 -390 3
l-390 0 0 -392z"/>
<path d="M898 1207 c40 -41 72 -81 72 -92 0 -11 -10 -38 -21 -61 -20 -36 -21
-43 -8 -69 8 -17 27 -36 44 -44 26 -13 33 -12 69 8 23 11 50 21 61 21 11 0 51
-32 92 -72 l73 -72 0 227 0 227 -227 0 -227 0 72 -73z"/>
<path d="M467 812 l-338 -338 25 -23 c20 -18 28 -21 44 -12 26 14 102 14 139
0 38 -14 83 -57 99 -96 17 -39 18 -116 3 -145 -9 -16 -6 -24 12 -44 l23 -25
338 338 338 338 -24 23 c-19 20 -27 22 -44 13 -26 -14 -102 -14 -139 0 -38 14
-83 57 -99 96 -17 39 -18 116 -3 145 9 17 7 25 -13 44 l-23 24 -338 -338z
m267 16 c9 -12 16 -27 16 -32 0 -5 -50 -60 -112 -123 -78 -78 -119 -113 -135
-113 -27 0 -57 41 -49 68 4 10 53 64 110 120 111 110 140 123 170 80z m24
-230 c25 -25 13 -61 -40 -115 -53 -54 -90 -67 -116 -41 -25 25 -13 61 40 115
53 54 90 67 116 41z"/>
<path d="M885 390 l-390 -390 393 0 392 0 0 390 c0 215 -1 390 -3 390 -1 0
-178 -175 -392 -390z"/>
<path d="M0 227 l0 -227 227 0 227 0 -72 73 c-40 41 -72 81 -72 92 0 11 10 38
21 61 20 36 21 43 8 69 -8 17 -27 36 -44 44 -26 13 -33 12 -69 -8 -23 -11 -50
-21 -61 -21 -11 0 -51 32 -92 72 l-73 72 0 -227z"/>
</g>
</svg>
